<svg xmlns="http://www.w3.org/2000/svg" xmlns:svg="http://www.w3.org/2000/svg" id="svg8" width="50" height="50" version="1.1" viewBox="0 0 50 50"><defs id="defs2"><clipPath id="clipPath18" clipPathUnits="userSpaceOnUse"><path id="path16" d="M 0,583.94 H 810.71 V 0 H 0 Z"/></clipPath></defs><metadata id="metadata5"/><g id="layer1" transform="translate(-92.319324,-118.51435)"><g id="g10" transform="matrix(0.35277777,0,0,-0.35277777,-34.899007,247.29815)"><g id="g12"><g id="g14" clip-path="url(#clipPath18)"><g id="g20" transform="translate(450.0909,298.08)"><path style="fill:#fff;fill-opacity:1;fill-rule:nonzero;stroke:none" id="path22" d="m 0,0 v 12.218 c 0,14.56 -11.846,26.412 -26.406,26.412 -7.11,0 -13.575,-2.829 -18.33,-7.413 -4.754,4.584 -11.22,7.413 -18.329,7.413 -14.561,0 -26.407,-11.852 -26.407,-26.412 v -36.655 c 0,-14.567 11.846,-26.413 26.407,-26.413 h 36.659 C -11.846,-50.85 0,-39.004 0,-24.437 v 17.756 h -52.817 v -16.166 h 36.653 v -1.59 c 0,-5.652 -4.597,-10.248 -10.242,-10.248 h -36.659 c -5.646,0 -10.243,4.596 -10.243,10.248 v 36.655 c 0,5.651 4.597,10.248 10.243,10.248 5.651,0 10.248,-4.597 10.248,-10.248 V 0 h 16.163 v 12.218 c 0,5.651 4.597,10.248 10.248,10.248 5.645,0 10.242,-4.597 10.242,-10.248 V 0 Z"/></g></g></g></g></g></svg>